<svg width="15" height="15" viewBox="0 0 15 15" version="1.1" xmlns="http://www.w3.org/2000/svg" xmlns:xlink="http://www.w3.org/1999/xlink">
<g id="Canvas" fill="none">
<path id="Vector" d="M 14.2185 5.43931C 13.8207 5.08622 13.3178 4.89156 12.8063 4.89156L 12.3297 4.89156L 10.6158 4.89156L 9.80256 4.89156L 9.80256 2.69604C 9.80256 1.64582 9.50088 0.880779 8.90188 0.423568C 7.95748 -0.291673 6.67641 0.111216 6.61957 0.129323C 6.40096 0.201753 6.2523 0.409988 6.2523 0.645384L 6.2523 3.29359C 6.2523 4.09936 5.88066 4.78292 5.14176 5.33066C 4.58211 5.74713 4.00935 5.93726 3.93502 5.9599L 3.88255 5.97348C 3.6858 5.74261 3.39723 5.59775 3.07369 5.59775L 1.07994 5.59775C 0.485319 5.59775 3.33576e-08 6.10023 3.33576e-08 6.71588L 3.33576e-08 13.488C 3.33576e-08 14.1037 0.485319 14.6062 1.07994 14.6062L 3.08243 14.6062C 3.34476 14.6062 3.58961 14.5066 3.77324 14.3436C 4.17549 14.751 4.72202 15 5.31227 15L 7.30164 15L 7.50714 15L 11.5777 15C 12.2073 15 12.7626 14.8416 13.1867 14.5473C 13.7288 14.1671 14.0655 13.565 14.1617 12.7954L 14.9706 7.58956C 15.0973 6.78378 14.8088 5.9599 14.2185 5.43931ZM 3.11304 13.488C 3.11304 13.5061 3.09992 13.5197 3.08243 13.5197L 1.07994 13.5197C 1.06245 13.5197 1.04934 13.5061 1.04934 13.488L 1.04934 6.71588C 1.04934 6.69777 1.06245 6.68419 1.07994 6.68419L 3.08243 6.68419C 3.09992 6.68419 3.11304 6.69777 3.11304 6.71588L 3.11304 13.488ZM 13.9343 7.42207L 13.1255 12.637C 13.1255 12.6415 13.1255 12.6506 13.1211 12.6596C 13.0861 12.972 12.9724 13.9181 11.5777 13.9181L 7.50714 13.9181L 7.30164 13.9181L 5.31227 13.9181C 4.75263 13.9181 4.26294 13.4835 4.17549 12.9086C 4.17112 12.886 4.16675 12.8633 4.16237 12.8452L 4.16237 7.02371L 4.19298 7.01465C 4.20172 7.01465 4.2061 7.01012 4.21484 7.01012C 4.24545 7.00107 4.98873 6.78378 5.72764 6.23603C 6.75511 5.48005 7.30164 4.46151 7.30164 3.29359L 7.30164 1.09354C 7.59021 1.06185 7.98808 1.07543 8.28102 1.29725C 8.59583 1.53717 8.75323 2.00796 8.75323 2.69152L 8.75323 5.43026C 8.75323 5.72903 8.98933 5.97348 9.2779 5.97348L 10.6158 5.97348L 12.3297 5.97348L 12.8063 5.97348C 13.0686 5.97348 13.3266 6.07759 13.5365 6.25867C 13.8513 6.53933 13.9999 6.98296 13.9343 7.42207Z" transform="translate(15 15) scale(-1)" fill="#EB5757"/>
</g>
</svg>
