<svg width="20" height="21" viewBox="0 0 20 21" version="1.1" xmlns="http://www.w3.org/2000/svg" xmlns:xlink="http://www.w3.org/1999/xlink">
<g id="Canvas" fill="none">
<path id="Vector" d="M 13.3333 9.94737L 13.3333 3.31579L 10 0L 6.66667 3.31579L 6.66667 5.52632L 0 5.52632L 0 21L 20 21L 20 9.94737L 13.3333 9.94737ZM 4.44444 18.7895L 2.22222 18.7895L 2.22222 16.5789L 4.44444 16.5789L 4.44444 18.7895ZM 4.44444 14.3684L 2.22222 14.3684L 2.22222 12.1579L 4.44444 12.1579L 4.44444 14.3684ZM 4.44444 9.94737L 2.22222 9.94737L 2.22222 7.73684L 4.44444 7.73684L 4.44444 9.94737ZM 11.1111 18.7895L 8.88889 18.7895L 8.88889 16.5789L 11.1111 16.5789L 11.1111 18.7895ZM 11.1111 14.3684L 8.88889 14.3684L 8.88889 12.1579L 11.1111 12.1579L 11.1111 14.3684ZM 11.1111 9.94737L 8.88889 9.94737L 8.88889 7.73684L 11.1111 7.73684L 11.1111 9.94737ZM 11.1111 5.52632L 8.88889 5.52632L 8.88889 3.31579L 11.1111 3.31579L 11.1111 5.52632ZM 17.7778 18.7895L 15.5556 18.7895L 15.5556 16.5789L 17.7778 16.5789L 17.7778 18.7895ZM 17.7778 14.3684L 15.5556 14.3684L 15.5556 12.1579L 17.7778 12.1579L 17.7778 14.3684Z" fill="#969696"/>
</g>
</svg>
