<svg width="23" height="16" viewBox="0 0 23 16" version="1.1" xmlns="http://www.w3.org/2000/svg" xmlns:xlink="http://www.w3.org/1999/xlink">
<g id="Canvas" fill="none">
<g id="Group">
<path id="Vector" d="M 0.413261 0.945231L 8.69779 7.46667C 9.07345 7.76205 9.59113 7.89333 10.094 7.86872C 10.5959 7.89333 11.1136 7.76287 11.4893 7.46667L 19.7738 0.945231C 20.4376 0.425846 20.2874 -8.13802e-08 19.4452 -8.13802e-08L 10.0948 -8.13802e-08L 0.744345 -8.13802e-08C -0.0986391 -8.13802e-08 -0.248907 0.425846 0.413261 0.945231Z" transform="translate(1.40552 0)" fill="#969696"/>
<path id="Vector_2" d="M 21.778 0.254948L 12.7248 7.08572C 12.3863 7.33844 11.943 7.46151 11.5012 7.45577C 11.0587 7.46151 10.6153 7.33762 10.2768 7.08572L 1.22195 0.254948C 0.54988 -0.251308 0 0.0202817 0 0.858025L 0 12.0654C 0 12.9032 0.690239 13.5891 1.53322 13.5891L 11.4996 13.5891L 21.4668 13.5891C 22.3098 13.5891 23 12.9032 23 12.0654L 23 0.858025C 23 0.0202817 22.4501 -0.251308 21.778 0.254948Z" transform="translate(0 2.41113)" fill="#969696"/>
</g>
</g>
</svg>
