<svg width="18" height="16" viewBox="0 0 18 16" version="1.1" xmlns="http://www.w3.org/2000/svg" xmlns:xlink="http://www.w3.org/1999/xlink">
<g id="Canvas" fill="none">
<path id="Union" fill-rule="evenodd" clip-rule="evenodd" d="M 16.3928 2.66699C 16.8347 2.66699 17.2131 2.83008 17.5278 3.15625C 17.8428 3.48242 18 3.875 18 4.33301L 18 8.33301L 0 8.33301L 0 4.33301C 0 3.875 0.157227 3.48242 0.472168 3.15625C 0.786865 2.83008 1.16528 2.66699 1.60718 2.66699L 5.14282 2.66699L 5.14282 1C 5.14282 0.72168 5.23657 0.486328 5.42407 0.291992C 5.61182 0.0976562 5.83936 0 6.10718 0L 11.8928 0C 12.1606 0 12.3884 0.0976562 12.5759 0.291992C 12.7634 0.486328 12.8572 0.72168 12.8572 1L 12.8572 2.66699L 16.3928 2.66699ZM 6.42871 2.66699L 11.5715 2.66699L 11.5715 1.33301L 6.42871 1.33301L 6.42871 2.66699ZM 11.25 11C 11.25 11.1807 11.1863 11.3369 11.0593 11.4688C 10.9321 11.6006 10.7812 11.666 10.6072 11.666L 7.39282 11.666C 7.21875 11.666 7.06812 11.6006 6.94092 11.4688C 6.81372 11.3369 6.75 11.1807 6.75 11L 6.75 9.33301L 0 9.33301L 0 14.333C 0 14.791 0.157227 15.1836 0.472168 15.5098C 0.786865 15.8359 1.16528 16 1.60718 16L 16.3928 16C 16.8347 16 17.2131 15.8359 17.5278 15.5098C 17.8428 15.1836 18 14.791 18 14.333L 18 9.33301L 11.25 9.33301L 11.25 11ZM 10.2854 9.33301L 7.71387 9.33301L 7.71387 10.666L 10.2854 10.666L 10.2854 9.33301Z" fill="#969696"/>
</g>
</svg>
