<svg width="17" height="17" viewBox="0 0 17 17" version="1.1" xmlns="http://www.w3.org/2000/svg" xmlns:xlink="http://www.w3.org/1999/xlink">
<g id="Canvas" fill="none">
<path id="Vector" d="M 8.5 0C 3.80591 0 0 3.80591 0 8.5C 0 13.1941 3.80591 17 8.5 17C 13.1951 17 17 13.1941 17 8.5C 17 3.80591 13.1951 0 8.5 0ZM 10.818 11.7819C 10.3998 12.2509 9.79598 12.5269 9.00635 12.61L 9.00635 13.8125L 7.99986 13.8125L 7.99986 12.6162C 6.68316 12.4813 5.86862 11.7155 5.55425 10.321L 7.11065 9.91528C 7.25488 10.792 7.73218 11.2299 8.54253 11.2299C 8.92125 11.2299 9.20142 11.1366 9.37988 10.9487C 9.55835 10.7609 9.64757 10.5347 9.64757 10.2691C 9.64757 9.99414 9.55832 9.78556 9.37988 9.64444C 9.20142 9.50234 8.80401 9.32277 8.18872 9.10489C 7.63569 8.91298 7.20299 8.72409 6.89171 8.53529C 6.58043 8.34853 6.32725 8.08602 6.13321 7.74878C 5.93918 7.41051 5.84166 7.01622 5.84166 6.56798C 5.84166 5.97965 6.01597 5.44943 6.36255 4.97838C 6.70912 4.50835 7.25488 4.22091 7.99989 4.11613L 7.99989 3.1875L 9.00638 3.1875L 9.00638 4.11616C 10.1311 4.25106 10.8595 4.8871 11.1905 6.02534L 9.80429 6.59394C 9.53348 5.81367 9.11632 5.42353 8.54984 5.42353C 8.26552 5.42353 8.03725 5.51069 7.86605 5.68501C 7.69379 5.85932 7.6077 6.07099 7.6077 6.31899C 7.6077 6.57216 7.69071 6.7662 7.85672 6.90213C 8.02171 7.03704 8.37761 7.20408 8.92131 7.40433C 9.51897 7.62224 9.98796 7.8287 10.3273 8.02274C 10.6676 8.21678 10.9384 8.48552 11.1418 8.82689C 11.3441 9.16931 11.4457 9.56881 11.4457 10.0264C 11.4457 10.7288 11.2361 11.314 10.818 11.7819Z" fill="#969696"/>
</g>
</svg>
