<svg width="10" height="16" viewBox="0 0 10 16" version="1.1" xmlns="http://www.w3.org/2000/svg" xmlns:xlink="http://www.w3.org/1999/xlink">
<g id="Canvas" fill="none">
<path id="?" d="M 2.69531 16.2637L 2.69531 15.541C 2.69531 14.916 2.82878 14.3724 3.0957 13.9102C 3.36263 13.4479 3.85091 12.9564 4.56055 12.4355C 5.24414 11.9473 5.69336 11.5501 5.9082 11.2441C 6.12956 10.9382 6.24023 10.5964 6.24023 10.2188C 6.24023 9.79557 6.08398 9.47331 5.77148 9.25195C 5.45898 9.0306 5.02279 8.91992 4.46289 8.91992C 3.48633 8.91992 2.37305 9.23893 1.12305 9.87695L 0.0585938 7.73828C 1.51042 6.92448 3.05013 6.51758 4.67773 6.51758C 6.01888 6.51758 7.08333 6.83984 7.87109 7.48438C 8.66536 8.12891 9.0625 8.98828 9.0625 10.0625C 9.0625 10.7786 8.89974 11.3971 8.57422 11.918C 8.2487 12.4388 7.63021 13.0247 6.71875 13.6758C 6.09375 14.138 5.69661 14.4896 5.52734 14.7305C 5.36458 14.9714 5.2832 15.2871 5.2832 15.6777L 5.2832 16.2637L 2.69531 16.2637ZM 2.38281 19.6035C 2.38281 19.0566 2.5293 18.6432 2.82227 18.3633C 3.11523 18.0833 3.54167 17.9434 4.10156 17.9434C 4.64193 17.9434 5.05859 18.0866 5.35156 18.373C 5.65104 18.6595 5.80078 19.0697 5.80078 19.6035C 5.80078 20.1178 5.65104 20.5247 5.35156 20.8242C 5.05208 21.1172 4.63542 21.2637 4.10156 21.2637C 3.55469 21.2637 3.13151 21.1204 2.83203 20.834C 2.53255 20.541 2.38281 20.1309 2.38281 19.6035Z" transform="translate(0 -6)" fill="#969696"/>
</g>
</svg>
